<?xml version="1.0" encoding="utf-8"?>
<!-- Generator: Adobe Illustrator 17.0.0, SVG Export Plug-In . SVG Version: 6.00 Build 0)  -->
<!DOCTYPE svg PUBLIC "-//W3C//DTD SVG 1.1//EN" "http://www.w3.org/Graphics/SVG/1.1/DTD/svg11.dtd">
<svg version="1.1" id="Layer_1" xmlns="http://www.w3.org/2000/svg" xmlns:xlink="http://www.w3.org/1999/xlink" x="0px" y="0px"
	 width="268.706px" height="284.647px" viewBox="0 0 268.706 284.647" enable-background="new 0 0 268.706 284.647"
	 xml:space="preserve">
<g>
	<path fill="#B2B2B2" d="M133.923,0L0,47.131l21.162,175.462l112.903,62.054l113.485-62.895l21.156-175.455L133.923,0z M133.923,0"
		/>
	<path fill="#B52E31" d="M255.348,56.436L133.61,14.924v254.897l102.022-56.462L255.348,56.436z M255.348,56.436"/>
	<path fill="#E23237" d="M15.028,57.186l18.134,156.922l100.447,55.713V14.918L15.028,57.186z M15.028,57.186"/>
	<path fill="#F0F0F0" d="M161.828,141.705l-27.995-58.464l-24.647,58.464H161.828z M172.502,166.288H98.291l-16.602,41.527
		l-30.881,0.57l82.804-184.206l85.69,184.206h-28.622L172.502,166.288z M172.502,166.288"/>
	<path fill="#B2B2B2" d="M133.61,24.178l0.221,59.063l27.967,58.509h-28.125l-0.063,24.5l38.891,0.038l18.177,42.104l29.549,0.549
		L133.61,24.178z M133.61,24.178"/>
</g>
</svg>
